<svg xmlns="http://www.w3.org/2000/svg" version="1.1" xmlns:xlink="http://www.w3.org/1999/xlink" fill="#2ecc71" height="800px" width="800px" id="Capa_1" viewBox="0 0 465.097 465.097" xml:space="preserve"><metadata><rdf:RDF xmlns:rdf="http://www.w3.org/1999/02/22-rdf-syntax-ns#" xmlns:dc="http://purl.org/dc/elements/1.1/"><rdf:Description><dc:creator>RealFaviconGenerator</dc:creator><dc:source>https://realfavicongenerator.net</dc:source></rdf:Description></rdf:RDF></metadata><path id="XMLID_1441_" d="M391.437,138.084c-6.329-2.182-13.334,0.093-17.174,5.574L247.548,324.541v-90.909
	c49.49-7.281,87.603-50.022,87.603-101.504V15c0-5.8-3.343-11.079-8.585-13.559c-5.243-2.479-11.443-1.717-15.929,1.963
	l-46.364,38.035l-20-25.063c-2.847-3.566-7.161-5.644-11.725-5.644c-4.563,0-8.878,2.077-11.725,5.644l-20,25.063L154.459,3.403
	c-4.483-3.678-10.686-4.441-15.928-1.963c-5.242,2.48-8.585,7.76-8.585,13.559v117.128c0,51.481,38.112,94.223,87.602,101.504
	v90.909L90.833,143.658c-3.84-5.481-10.845-7.757-17.174-5.574c-6.327,2.181-10.444,8.289-10.09,14.973
	c0.117,2.21,3.105,54.816,24.182,115.6c12.492,36.025,28.793,67.45,48.449,93.404c22.782,30.083,50.121,52.806,81.348,67.717v20.318
	c0,8.284,6.716,15,15,15s15-6.716,15-15v-20.318c31.227-14.912,58.566-37.635,81.349-67.717
	c19.656-25.954,35.957-57.38,48.448-93.404c21.078-60.784,24.065-113.391,24.183-115.6
	C401.88,146.373,397.764,140.265,391.437,138.084z"></path></svg>